<svg width="24" height="24" viewBox="0 0 24 24" fill="none" xmlns="http://www.w3.org/2000/svg">
<path d="M23.19 4.02007H23.2201L12.34 0.060075C12.12 -0.020025 11.88 -0.020025 11.6601 0.060075L0.7 4.04007C0.72009 4.04007 0.73 4.04008 0.75 4.02978C0.32769 4.13628 0 4.52638 0 4.98978V18.9898C0 19.42 0.26 19.7901 0.66009 19.9302L11.6601 23.9302C11.8862 24.0127 12.1299 24.0069 12.34 23.9302L23.34 19.9302C23.74 19.7901 24 19.42 24 18.9898V4.98978C24 4.49078 23.6165 4.08597 23.19 4.02007ZM11 21.5699L2 18.2901V6.41998L11 9.69967V21.5699ZM22 18.2901L13 21.5699V9.68997L22 6.41998V18.2901Z" fill="black" fill-opacity="0.6"/>
</svg>
