<svg width="27" height="27" viewBox="0 0 27 27" fill="none" xmlns="http://www.w3.org/2000/svg">
<path d="M23.0806 0H20.4677V3.48387H16.5484V3.04839C16.5484 2.2399 16.2272 1.46454 15.6555 0.892852C15.0839 0.321169 14.3085 0 13.5 0H3.04839C2.2399 0 1.46454 0.321169 0.892852 0.892852C0.321169 1.46454 0 2.2399 0 3.04839V27H27V20.4677C27 19.6593 26.6788 18.8839 26.1071 18.3122C25.5355 17.7405 24.7601 17.4194 23.9516 17.4194H23.0806V13.0645H27V10.4516H23.0806V6.09677H27V3.48387H23.0806V0ZM24.3871 20.4677V24.3871H9.58065V20.9032H6.96774V24.3871H2.6129V3.04839C2.6129 2.93289 2.65878 2.82212 2.74045 2.74045C2.82212 2.65878 2.93289 2.6129 3.04839 2.6129H13.5C13.6155 2.6129 13.7263 2.65878 13.8079 2.74045C13.8896 2.82212 13.9355 2.93289 13.9355 3.04839V20.0323H23.9516C24.0671 20.0323 24.1779 20.0781 24.2595 20.1598C24.3412 20.2415 24.3871 20.3522 24.3871 20.4677ZM20.4677 17.4194H16.5484V13.0645H20.4677V17.4194ZM20.4677 10.4516H16.5484V6.09677H20.4677V10.4516Z" fill="black" fill-opacity="0.6"/>
<path d="M9.5797 6.9668H6.9668V9.5797H9.5797V6.9668Z" fill="black" fill-opacity="0.6"/>
<path d="M9.5797 13.9355H6.9668V16.5484H9.5797V13.9355Z" fill="black" fill-opacity="0.6"/>
</svg>
