<svg width="26" height="26" viewBox="0 0 26 26" fill="none" xmlns="http://www.w3.org/2000/svg">
<path d="M25.8589 22.3102L23.3696 19.5443C23.3301 19.5024 23.2844 19.4669 23.234 19.4391V10.7872H24.0638C24.2105 10.7872 24.3512 10.729 24.455 10.6252C24.5587 10.5215 24.617 10.3808 24.617 10.234V7.46808C24.617 7.32137 24.5587 7.18066 24.455 7.07692C24.3512 6.97318 24.2105 6.91489 24.0638 6.91489H17.1489C17.0022 6.91489 16.8615 6.97318 16.7578 7.07692C16.654 7.18066 16.5957 7.32137 16.5957 7.46808V10.234C16.5957 10.3808 16.654 10.5215 16.7578 10.6252C16.8615 10.729 17.0022 10.7872 17.1489 10.7872H17.9787V19.3617H15.6277V3.87234H17.1489C17.2957 3.87234 17.4364 3.81406 17.5401 3.71031C17.6438 3.60657 17.7021 3.46586 17.7021 3.31915V0.553191C17.7021 0.406476 17.6438 0.26577 17.5401 0.162026C17.4364 0.0582825 17.2957 0 17.1489 0H8.85106C8.70435 0 8.56364 0.0582825 8.4599 0.162026C8.35615 0.26577 8.29787 0.406476 8.29787 0.553191V3.31915C8.29787 3.46586 8.35615 3.60657 8.4599 3.71031C8.56364 3.81406 8.70435 3.87234 8.85106 3.87234H10.3723V19.3617H8.02128V8.02128H8.85106C8.99778 8.02128 9.13848 7.96299 9.24223 7.85925C9.34597 7.75551 9.40425 7.6148 9.40425 7.46808V4.70213C9.40425 4.55541 9.34597 4.41471 9.24223 4.31096C9.13848 4.20722 8.99778 4.14894 8.85106 4.14894H1.93617C1.78945 4.14894 1.64875 4.20722 1.545 4.31096C1.44126 4.41471 1.38298 4.55541 1.38298 4.70213V7.46808C1.38298 7.6148 1.44126 7.75551 1.545 7.85925C1.64875 7.96299 1.78945 8.02128 1.93617 8.02128H2.76596V19.6853L0.163191 22.2908C0.0593055 22.3941 0.00061758 22.5344 0 22.6808V25.4468C0 25.5935 0.0582825 25.7342 0.162026 25.838C0.26577 25.9417 0.406476 26 0.553191 26H25.4468C25.5935 26 25.7342 25.9417 25.838 25.838C25.9417 25.7342 26 25.5935 26 25.4468V22.6808C26.0004 22.5441 25.9501 22.4121 25.8589 22.3102ZM17.7021 8.02128H23.5106V9.68085H17.7021V8.02128ZM19.0851 10.7872H22.1277V19.3617H19.0851V10.7872ZM9.40425 1.10638H16.5957V2.76596H9.40425V1.10638ZM11.4787 3.87234H14.5213V19.3617H11.4787V3.87234ZM2.48936 5.25532H8.29787V6.91489H2.48936V5.25532ZM6.91489 8.02128V19.3617H3.87234V8.02128H6.91489ZM24.8936 24.8936H1.10638V22.9104L3.54872 20.4681H22.7113L24.8936 22.8938V24.8936Z" fill="black" fill-opacity="0.6"/>
</svg>
