<svg width="28" height="27" viewBox="0 0 28 27" fill="none" xmlns="http://www.w3.org/2000/svg">
<path fill-rule="evenodd" clip-rule="evenodd" d="M0.5 27H26.583C26.859 27 27.083 26.776 27.083 26.5V15.953L27.082 15.925C27.077 15.808 27.031 15.701 26.958 15.618L26.948 15.608L26.938 15.598L22.539 11.151V0.5C22.539 0.224 22.315 0 22.039 0H0.5C0.224 0 0 0.224 0 0.5V26.5C0 26.776 0.224 27 0.5 27ZM18.022 16.449C14.268 16.449 9.236 16.449 9.236 16.449C9.236 16.472 9.236 26 9.236 26H13.325V22.569C13.325 21.419 13.781 20.317 14.594 19.504C15.407 18.691 16.509 18.235 17.659 18.235H17.661C18.81 18.235 19.913 18.691 20.725 19.504C21.538 20.317 21.995 21.419 21.995 22.569V26C24.349 26 26.083 26 26.083 26V16.449H18.022ZM20.995 22.569V26H14.325V22.569C14.325 21.684 14.676 20.836 15.301 20.211C15.926 19.586 16.774 19.235 17.659 19.235H17.661C18.545 19.235 19.393 19.586 20.018 20.211C20.643 20.836 20.995 21.684 20.995 22.569ZM18.015 6.579L21.539 10.14V1H1V26H8.236V15.953L8.237 15.925C8.242 15.808 8.289 15.701 8.362 15.618L8.371 15.608L8.381 15.598L17.304 6.579L17.313 6.57L17.336 6.549L17.358 6.531L17.383 6.514L17.416 6.494L17.447 6.477L17.48 6.464L17.515 6.452L17.55 6.442L17.585 6.436L17.622 6.432L17.658 6.43L17.694 6.431L17.728 6.435L17.763 6.441L17.797 6.45L17.829 6.46L17.864 6.474L17.897 6.49L17.928 6.509L17.959 6.53L17.985 6.551L18.011 6.574L18.015 6.579ZM9.934 15.449H25.385L17.66 7.641L9.934 15.449ZM4.515 9.402H8.819C9.095 9.402 9.319 9.178 9.319 8.902C9.319 8.626 9.095 8.402 8.819 8.402H4.515C4.239 8.402 4.015 8.626 4.015 8.902C4.015 9.178 4.239 9.402 4.515 9.402ZM4.515 7.201H8.819C9.095 7.201 9.319 6.977 9.319 6.701C9.319 6.425 9.095 6.201 8.819 6.201H4.515C4.239 6.201 4.015 6.425 4.015 6.701C4.015 6.977 4.239 7.201 4.515 7.201ZM4.515 5H11.269C11.545 5 11.769 4.776 11.769 4.5C11.769 4.224 11.545 4 11.269 4H4.515C4.239 4 4.015 4.224 4.015 4.5C4.015 4.776 4.239 5 4.515 5Z" fill="currentColor"/>
</svg>
