<svg width="28" height="25" viewBox="0 0 28 25" fill="none" xmlns="http://www.w3.org/2000/svg">
<path d="M26.0614 20.297V10.9604C26.0614 10.5139 25.696 10.1485 25.2495 10.1485H14.5733V0.811881C14.5733 0.365347 14.2079 0 13.7614 0H2.80099C2.35446 0 1.98911 0.365347 1.98911 0.811881V10.1891C1.70495 10.3109 1.46139 10.595 1.46139 10.9604V20.3376C0.608911 20.5 0 21.1901 0 22.0832V22.8139C0 23.7881 0.811881 24.6 1.78614 24.6H25.7366C26.7109 24.6 27.5228 23.7881 27.5228 22.8139V22.0832C27.5228 21.1901 26.8733 20.4594 26.0614 20.297ZM24.4376 20.297H20.2564V11.7723H24.4376V20.297ZM14.5733 20.297V11.7723H18.6327V20.297H14.5733ZM8.8901 20.297V11.7723H12.9495V20.297H8.8901ZM3.12574 20.297V11.7723H7.26634V20.297H3.12574ZM3.61287 1.62376H12.9495V10.1485H3.61287V1.62376ZM25.899 22.7733C25.899 22.8545 25.8178 22.9356 25.7366 22.9356H1.78614C1.70495 22.9356 1.62376 22.8545 1.62376 22.7733V22.0426C1.62376 21.9614 1.70495 21.8802 1.78614 21.8802H2.31386H25.2495H25.7772C25.8584 21.8802 25.9396 21.9614 25.9396 22.0426V22.7733H25.899Z" fill="black" fill-opacity="0.6"/>
<path d="M17.009 7.5099H17.415V7.91584C17.415 8.36238 17.7803 8.72772 18.2268 8.72772C18.6734 8.72772 19.0387 8.36238 19.0387 7.91584V7.5099H19.4447C19.8912 7.5099 20.2565 7.14455 20.2565 6.69802C20.2565 6.25148 19.8912 5.88614 19.4447 5.88614H19.0387V5.4802C19.0387 5.03366 18.6734 4.66832 18.2268 4.66832C17.7803 4.66832 17.415 5.03366 17.415 5.4802V5.88614H17.009C16.5625 5.88614 16.1971 6.25148 16.1971 6.69802C16.1971 7.14455 16.5625 7.5099 17.009 7.5099Z" fill="black" fill-opacity="0.6"/>
<path d="M21.8804 3.04455H22.2863V3.45049C22.2863 3.89703 22.6516 4.26237 23.0982 4.26237C23.5447 4.26237 23.9101 3.89703 23.9101 3.45049V3.04455H24.316C24.7625 3.04455 25.1279 2.67921 25.1279 2.23267C25.1279 1.78614 24.7625 1.42079 24.316 1.42079H23.9101V1.01485C23.9101 0.568315 23.5447 0.202969 23.0982 0.202969C22.6516 0.202969 22.2863 0.568315 22.2863 1.01485V1.42079H21.8804C21.4338 1.42079 21.0685 1.78614 21.0685 2.23267C21.0685 2.67921 21.4338 3.04455 21.8804 3.04455Z" fill="black" fill-opacity="0.6"/>
<path d="M10.9199 8.52475C11.3664 8.52475 11.7318 8.15941 11.7318 7.71287V6.08911C11.7318 5.64258 11.3664 5.27723 10.9199 5.27723C10.4734 5.27723 10.108 5.64258 10.108 6.08911V7.71287C10.108 8.15941 10.4734 8.52475 10.9199 8.52475Z" fill="black" fill-opacity="0.6"/>
</svg>
