<svg width="31" height="25" viewBox="0 0 31 25" fill="none" xmlns="http://www.w3.org/2000/svg">
<path d="M29.0961 2.51511C27.9791 0.990141 26.1755 0 24.1396 0C21.6167 0 19.4493 1.52134 18.5044 3.69705C18.2794 4.21421 18.1234 4.76879 18.0491 5.34832C18.0158 5.6082 17.9982 5.87276 17.9982 6.14148C17.9982 9.53342 23.0908 15.374 24.1391 15.374C24.8954 15.374 27.7566 12.3339 29.292 9.3671C29.8845 8.22103 30.2801 7.0864 30.2801 6.14096C30.2806 4.7849 29.8414 3.53072 29.0961 2.51511ZM24.1396 8.79381C22.6744 8.79381 21.4863 7.60668 21.4863 6.14148C21.4863 5.98347 21.5003 5.8291 21.5263 5.67889C21.7051 4.66328 22.4613 3.84674 23.4437 3.5801C23.5747 3.54476 23.7088 3.51877 23.847 3.50422C23.9432 3.4933 24.0409 3.4881 24.1396 3.4881C25.0986 3.4881 25.9385 3.99695 26.4048 4.75892C26.6511 5.16173 26.793 5.63523 26.793 6.14096C26.793 7.60616 25.6048 8.79381 24.1396 8.79381Z" fill="black" fill-opacity="0.6"/>
<path d="M30.5837 10.432C30.2276 11.1166 29.7869 11.8384 29.2931 12.5525V21.2401L20.6646 22.8596L10.3359 20.9198L1.70689 22.5393V17.8799V18.8992C4.72149 18.8992 6.07806 16.6324 7.27455 14.633C8.47779 12.6218 9.42843 11.0333 11.6842 11.4514C13.6452 11.8146 14.8558 13.3503 16.137 14.9766C17.0549 16.1413 18.0039 17.3454 19.2597 18.0848C20.7067 18.9365 22.3548 19.041 24.2993 18.4056C24.568 18.3176 24.714 18.03 24.6262 17.7624C24.5378 17.4949 24.2483 17.3495 23.9801 17.437C20.321 18.6333 18.7555 16.6474 16.9426 14.3479C15.6001 12.6446 14.2123 10.8832 11.8713 10.4496C10.535 10.2018 9.41232 10.4957 8.43985 11.3469C7.61915 12.0656 6.99648 13.1056 6.3946 14.1115C5.2345 16.0498 4.13884 17.8804 1.70637 17.8804V5.93714L10.3354 4.31811L16.6203 5.49836C16.6999 4.93333 16.8433 4.3802 17.0481 3.84932L10.3359 2.58887L10.3323 2.58938L0 4.52819V24.5889L10.3359 22.649L20.6641 24.5889L31 22.649V9.56121C30.8763 9.84476 30.738 10.135 30.5837 10.432Z" fill="black" fill-opacity="0.6"/>
</svg>
