<svg width="21" height="28" viewBox="0 0 21 28" fill="none" xmlns="http://www.w3.org/2000/svg">
<path d="M0.954545 2.6325e-06C0.417486 0.003789 0.00327727 0.537899 0 0.954548V27.0455C6.36364e-05 27.5452 0.454777 27.9999 0.954545 28H20.0455C20.5452 27.9999 20.9999 27.5452 21 27.0455V6.68182C21 6.43169 20.8981 6.18286 20.7216 6.00568L14.9943 0.278412C14.8171 0.101859 14.5683 -0.000598731 14.3182 2.6325e-06H0.954545ZM1.90909 1.90909H13.3636V6.68182C13.3637 7.18161 13.8184 7.63632 14.3182 7.63637H19.0909V26.0909H1.90909V1.90909ZM15.2727 3.25142L17.7486 5.72727H15.2727V3.25142ZM4.13636 10.8182C3.6092 10.8182 3.18182 11.2455 3.18182 11.7727C3.18182 12.2999 3.6092 12.7273 4.13636 12.7273H14.3182C14.8454 12.7273 15.2727 12.2999 15.2727 11.7727C15.2727 11.2455 14.8454 10.8182 14.3182 10.8182H4.13636ZM4.13636 15.9091C3.6092 15.9091 3.18182 16.3364 3.18182 16.8636C3.18182 17.3908 3.6092 17.8182 4.13636 17.8182H16.8636C17.3908 17.8182 17.8182 17.3908 17.8182 16.8636C17.8182 16.3364 17.3908 15.9091 16.8636 15.9091H4.13636ZM4.13636 21C3.6092 21 3.18182 21.4274 3.18182 21.9545C3.18182 22.4817 3.6092 22.9091 4.13636 22.9091H16.8636C17.3908 22.9091 17.8182 22.4817 17.8182 21.9545C17.8182 21.4274 17.3908 21 16.8636 21H4.13636Z" fill="black" fill-opacity="0.6"/>
</svg>
