<svg width="26" height="26" viewBox="0 0 26 26" fill="none" xmlns="http://www.w3.org/2000/svg">
<path fill-rule="evenodd" clip-rule="evenodd" d="M11.1429 7.42857H5.57143C4.03279 7.42857 2.78571 8.67564 2.78571 10.2143V24.1429H0.928571C0.416 24.1429 0 24.5589 0 25.0714C0 25.584 0.416 26 0.928571 26H25.0714C25.584 26 26 25.584 26 25.0714C26 24.5589 25.584 24.1429 25.0714 24.1429H24.1429V2.78571C24.1429 1.24707 22.8958 0 21.3571 0H13.9286C12.3899 0 11.1429 1.24707 11.1429 2.78571V7.42857ZM22.2857 24.1429V2.78571C22.2857 2.27314 21.8697 1.85714 21.3571 1.85714H13.9286C13.416 1.85714 13 2.27314 13 2.78571V7.42857C14.5386 7.42857 15.7857 8.67564 15.7857 10.2143V24.1429H22.2857ZM12.0714 24.1429H13.9286V10.2143C13.9286 9.70171 13.5126 9.28571 13 9.28571H5.57143C5.05886 9.28571 4.64286 9.70171 4.64286 10.2143V24.1429H6.5V20.4286C6.5 19.9364 6.69593 19.4638 7.04414 19.1156C7.39236 18.7674 7.865 18.5714 8.35714 18.5714H10.2143C10.7064 18.5714 11.1791 18.7674 11.5273 19.1156C11.8755 19.4638 12.0714 19.9364 12.0714 20.4286V24.1429ZM10.2143 24.1429H8.35714V20.4286H10.2143V24.1429ZM16.7143 19.5V20.4286C16.7143 20.9411 17.1303 21.3571 17.6429 21.3571C18.1554 21.3571 18.5714 20.9411 18.5714 20.4286V19.5C18.5714 18.9874 18.1554 18.5714 17.6429 18.5714C17.1303 18.5714 16.7143 18.9874 16.7143 19.5ZM19.5 19.5V20.4286C19.5 20.9411 19.916 21.3571 20.4286 21.3571C20.9411 21.3571 21.3571 20.9411 21.3571 20.4286V19.5C21.3571 18.9874 20.9411 18.5714 20.4286 18.5714C19.916 18.5714 19.5 18.9874 19.5 19.5ZM8.35714 15.7857V16.7143C8.35714 17.2269 8.77314 17.6429 9.28571 17.6429C9.79829 17.6429 10.2143 17.2269 10.2143 16.7143V15.7857C10.2143 15.2731 9.79829 14.8571 9.28571 14.8571C8.77314 14.8571 8.35714 15.2731 8.35714 15.7857ZM11.1429 15.7857V16.7143C11.1429 17.2269 11.5589 17.6429 12.0714 17.6429C12.584 17.6429 13 17.2269 13 16.7143V15.7857C13 15.2731 12.584 14.8571 12.0714 14.8571C11.5589 14.8571 11.1429 15.2731 11.1429 15.7857ZM5.57143 15.7857V16.7143C5.57143 17.2269 5.98743 17.6429 6.5 17.6429C7.01257 17.6429 7.42857 17.2269 7.42857 16.7143V15.7857C7.42857 15.2731 7.01257 14.8571 6.5 14.8571C5.98743 14.8571 5.57143 15.2731 5.57143 15.7857ZM16.7143 15.7857V16.7143C16.7143 17.2269 17.1303 17.6429 17.6429 17.6429C18.1554 17.6429 18.5714 17.2269 18.5714 16.7143V15.7857C18.5714 15.2731 18.1554 14.8571 17.6429 14.8571C17.1303 14.8571 16.7143 15.2731 16.7143 15.7857ZM19.5 15.7857V16.7143C19.5 17.2269 19.916 17.6429 20.4286 17.6429C20.9411 17.6429 21.3571 17.2269 21.3571 16.7143V15.7857C21.3571 15.2731 20.9411 14.8571 20.4286 14.8571C19.916 14.8571 19.5 15.2731 19.5 15.7857ZM8.35714 12.0714V13C8.35714 13.5126 8.77314 13.9286 9.28571 13.9286C9.79829 13.9286 10.2143 13.5126 10.2143 13V12.0714C10.2143 11.5589 9.79829 11.1429 9.28571 11.1429C8.77314 11.1429 8.35714 11.5589 8.35714 12.0714ZM11.1429 12.0714V13C11.1429 13.5126 11.5589 13.9286 12.0714 13.9286C12.584 13.9286 13 13.5126 13 13V12.0714C13 11.5589 12.584 11.1429 12.0714 11.1429C11.5589 11.1429 11.1429 11.5589 11.1429 12.0714ZM5.57143 12.0714V13C5.57143 13.5126 5.98743 13.9286 6.5 13.9286C7.01257 13.9286 7.42857 13.5126 7.42857 13V12.0714C7.42857 11.5589 7.01257 11.1429 6.5 11.1429C5.98743 11.1429 5.57143 11.5589 5.57143 12.0714ZM16.7143 12.0714V13C16.7143 13.5126 17.1303 13.9286 17.6429 13.9286C18.1554 13.9286 18.5714 13.5126 18.5714 13V12.0714C18.5714 11.5589 18.1554 11.1429 17.6429 11.1429C17.1303 11.1429 16.7143 11.5589 16.7143 12.0714ZM19.5 12.0714V13C19.5 13.5126 19.916 13.9286 20.4286 13.9286C20.9411 13.9286 21.3571 13.5126 21.3571 13V12.0714C21.3571 11.5589 20.9411 11.1429 20.4286 11.1429C19.916 11.1429 19.5 11.5589 19.5 12.0714ZM16.7143 8.35714V9.28571C16.7143 9.79829 17.1303 10.2143 17.6429 10.2143C18.1554 10.2143 18.5714 9.79829 18.5714 9.28571V8.35714C18.5714 7.84457 18.1554 7.42857 17.6429 7.42857C17.1303 7.42857 16.7143 7.84457 16.7143 8.35714ZM19.5 8.35714V9.28571C19.5 9.79829 19.916 10.2143 20.4286 10.2143C20.9411 10.2143 21.3571 9.79829 21.3571 9.28571V8.35714C21.3571 7.84457 20.9411 7.42857 20.4286 7.42857C19.916 7.42857 19.5 7.84457 19.5 8.35714ZM16.7143 4.64286V5.57143C16.7143 6.084 17.1303 6.5 17.6429 6.5C18.1554 6.5 18.5714 6.084 18.5714 5.57143V4.64286C18.5714 4.13029 18.1554 3.71429 17.6429 3.71429C17.1303 3.71429 16.7143 4.13029 16.7143 4.64286ZM19.5 4.64286V5.57143C19.5 6.084 19.916 6.5 20.4286 6.5C20.9411 6.5 21.3571 6.084 21.3571 5.57143V4.64286C21.3571 4.13029 20.9411 3.71429 20.4286 3.71429C19.916 3.71429 19.5 4.13029 19.5 4.64286ZM13.9286 4.64286V5.57143C13.9286 6.084 14.3446 6.5 14.8571 6.5C15.3697 6.5 15.7857 6.084 15.7857 5.57143V4.64286C15.7857 4.13029 15.3697 3.71429 14.8571 3.71429C14.3446 3.71429 13.9286 4.13029 13.9286 4.64286Z" fill="black" fill-opacity="0.6"/>
</svg>
